<svg id="Layer_1" data-name="Layer 1" xmlns="http://www.w3.org/2000/svg" viewBox="0 0 1080 1080"><defs><style>.cls-1{fill:none;stroke:#ea461f;stroke-miterlimit:10;stroke-width:25px;}.cls-2{fill:#ea461f;}</style></defs><path class="cls-1" d="M808.47,852.28H271.53a59.18,59.18,0,0,1-56.6-41.9L129.88,304.19c-9.93-38,14.4-76.47,48.41-76.47H901.71c34,0,58.34,38.44,48.41,76.47l-85,506.19A59.18,59.18,0,0,1,808.47,852.28Z"/><path class="cls-2" d="M846.14,356.6c9.48,17.22,4.2,34-3,49.83-28.61,63.3-55.84,127.22-85.31,190.15-12.08,25.81-30.27,37.61-59.18,37.35-94.71-.83-189.44-.3-284.15-.27-14.08,0-14.2.36-8,13,9.85,20,25.17,29.67,48.15,29.52,83.7-.56,167.41-.16,251.11-.28,7,0,12.25,1.73,15.2,8.56,2.38,5.53,1.4,10.46-2.1,15-3.72,4.87-9.1,4.79-14.54,4.79q-106.21-.06-212.42,0c-11.32,0-22.7-.66-34,.13-19.19,1.35-36.66-2.72-52.42-13.86-20.22-18.07-29.86-41.37-37-67.16-19.24-69.87-40.12-139.28-60.59-208.8-2.52-8.54-2.77-18.05-9.35-25.13.68-12.26-5.3-23-8.06-34.46-4.61-19.12-16.84-28.41-36.38-28.51q-27.72-.13-55.42,0c-2.9,0-6.36-1.43-8.6,1.95-.24-3.48-3.55-4.11-5.57-5.9-4.54-4.05-5.62-9.15-3.87-14.57s5.73-9,11.86-9c29.51,0,59-.22,88.51.42,13.23.28,23.75,7.15,31.66,17.8,1.33,3.81,2.87,7.56,4,11.44q21,74.9,42,149.82,16.41,59,32.4,118.21c1.63,6,4,8.95,10.86,8.56,13.48-.79,27-.69,40.51-.95a78.69,78.69,0,0,0,8.33.87c83,0,166.07-.29,249.11.17,14.35.08,23.58-4.47,30.1-17.45,17.35-34.57,32.38-70.18,48.1-105.47,8.93-20.06,18.88-39.69,26.23-60.44,2.91-6.46,5.29-13.1,9-19.23a58.19,58.19,0,0,0,7.92-23c1.24-9.71-.53-12-10.26-12.12-15.41-.2-30.82-.05-46.23-.06L381.7,367.3c-7.4-3.61-12.61-8.72-10.36-17.72,2.42-9.72,10.23-10.71,18.56-10.71q211,.08,422,0C826.48,338.9,838.1,344.18,846.14,356.6Z"/><path class="cls-2" d="M621.25,781.8c0-9.65-2.2-19.09.3-29,6.49-25.72,32.5-37.66,55.83-32.37s38.5,30.63,33.77,54.6-31.32,43.59-57,35.75c-2.55-.78-4.87-1.38-6.73,1.19C639.16,801.52,626.74,794.67,621.25,781.8Zm45.1-43.28c-14.61-.2-27.14,12.13-27.21,26.79-.07,13.92,12.26,28.21,25.43,27.69,15.64-.62,26.38-9.19,27.84-28C693.25,754.35,682.53,738.16,666.35,738.52Z"/><path class="cls-2" d="M447.23,732c16.15-13.86,42.4-17.78,57.29-6.52,25.87,19.56,27.67,51.35,8.71,71.69-14.49,15.53-31.11,18.93-51.26,11.12a20.61,20.61,0,0,0-4.49-.67l.07.47c-.28-.76-.56-1.52-.83-2.28C426.93,785.47,428.7,752.34,447.23,732Zm31.91,60.47a27.11,27.11,0,0,0,27.17-26.8c.25-14.34-11.65-26.85-25.81-27.13A26.9,26.9,0,0,0,453,765C452.88,780.19,464.4,792.33,479.14,792.49Z"/><path class="cls-2" d="M568.7,668.79c-8.2.08-16.6-7.28-16.58-14.54s8.34-14.58,16.63-14.49c8.56.1,14.08,5.57,14.25,14.12C583.19,663.06,577.77,668.7,568.7,668.79Z"/></svg>