<svg id="Layer_1" data-name="Layer 1" xmlns="http://www.w3.org/2000/svg" viewBox="0 0 1080 1080"><defs><style>.cls-1{fill:none;stroke:#ea461f;stroke-miterlimit:10;stroke-width:25px;}.cls-2{fill:#ea461f;}</style></defs><path class="cls-1" d="M808.47,852.28H271.53a59.18,59.18,0,0,1-56.6-41.9L129.88,304.19c-9.93-38,14.4-76.47,48.41-76.47H901.71c34,0,58.34,38.44,48.41,76.47l-85,506.19A59.18,59.18,0,0,1,808.47,852.28Z"/><path class="cls-1" d="M260.2,453.69V566a58.84,58.84,0,0,1-58.67,58.67H186.31c-.87,0-1.73,0-2.59-.06L147.61,409.69A58.4,58.4,0,0,1,186.31,395h15.22A58.84,58.84,0,0,1,260.2,453.69Z"/><path class="cls-1" d="M932.41,409.61l-36,214.24c-1.14.08-2.29.11-3.44.11H877.75a58.84,58.84,0,0,1-58.67-58.67V453a58.84,58.84,0,0,1,58.67-58.67H893A58.53,58.53,0,0,1,932.41,409.61Z"/><path class="cls-2" d="M932.41,409.61l-36,214.24c-1.14.08-2.29.11-3.44.11H877.75a58.84,58.84,0,0,1-58.67-58.67V453a58.84,58.84,0,0,1,58.67-58.67H893A58.53,58.53,0,0,1,932.41,409.61Z"/><path class="cls-2" d="M260.2,453.69V566a58.84,58.84,0,0,1-58.67,58.67H186.31c-.87,0-1.73,0-2.59-.06L147.61,409.69A58.4,58.4,0,0,1,186.31,395h15.22A58.84,58.84,0,0,1,260.2,453.69Z"/><path class="cls-1" d="M215.72,595.88S257.48,714,499.4,714"/><rect class="cls-2" x="452.88" y="677.24" width="174.24" height="73.44" rx="36.72"/></svg>