<svg id="Layer_1" data-name="Layer 1" xmlns="http://www.w3.org/2000/svg" viewBox="0 0 1080 1080"><defs><style>.cls-1{fill:none;stroke:#ea461f;stroke-miterlimit:10;stroke-width:25px;}.cls-2{fill:#ea461f;}</style></defs><path class="cls-1" d="M808.47,852.28H271.53a59.18,59.18,0,0,1-56.6-41.9L129.88,304.19c-9.93-38,14.4-76.47,48.41-76.47H901.71c34,0,58.34,38.44,48.41,76.47l-85,506.19A59.18,59.18,0,0,1,808.47,852.28Z"/><path class="cls-2" d="M759.69,777.64A20.94,20.94,0,0,1,745,771.12c-41.8-41.74-82.71-82.61-123.58-123.71-2-2-4.89-4.4-8.87-4.4a13.6,13.6,0,0,0-7.86,3c-34.17,24.37-71.23,36.72-110.15,36.72A202.61,202.61,0,0,1,453,678.29,189.18,189.18,0,0,1,335.42,600a186.75,186.75,0,0,1-30.48-137.69c12.21-72,53.9-122.23,123.91-149.33,15.62-6.06,31.89-8.68,47.17-10.6h33.42l5,.7c3.73.52,7.58,1.06,11.29,1.71A190.24,190.24,0,0,1,646.17,604.66c-4.1,5.59-3.67,10.72,1.33,15.69,23.71,23.62,47.78,47.67,71,70.93q25.83,25.82,51.67,51.61c3.82,3.81,6.17,7.2,7.5,10.87v10.18c-1.53,3.62-3.12,6.51-5.54,8.71A18.37,18.37,0,0,1,759.69,777.64Zm-267-438c-73.34,0-152.54,58.32-152.6,152.53,0,42,16.46,80.94,46.43,109.68,28.4,27.23,66.9,42.85,105.63,42.85h.24c85.45-.14,152.57-67,152.82-152.2.41-40-15.05-78.05-43.53-107a152.09,152.09,0,0,0-108.24-45.89Z"/></svg>