<svg id="Layer_1" data-name="Layer 1" xmlns="http://www.w3.org/2000/svg" viewBox="0 0 1080 1080"><defs><style>.cls-1{fill:none;stroke:#ea461f;stroke-miterlimit:10;stroke-width:25px;}.cls-2{fill:#ea461f;}</style></defs><path class="cls-1" d="M808.47,852.28H271.53a59.18,59.18,0,0,1-56.6-41.9L129.88,304.19c-9.93-38,14.4-76.47,48.41-76.47H901.71c34,0,58.34,38.44,48.41,76.47l-85,506.19A59.18,59.18,0,0,1,808.47,852.28Z"/><path class="cls-2" d="M540.5,790.32H459.89c-12.86,0-14.54-1.66-14.54-14.22,0-22.08-.07-44.16.06-66.24,0-4-1-6.88-4.21-9.68-10.33-9-12.9-24.07-6.68-36.5,5.77-11.54,11.78-23,17.44-34.57,2.38-4.89,5.73-7.07,11.26-7.05q77.47.18,155,0c5.27,0,8.58,2.08,10.86,6.7,6.36,12.89,13,25.62,19.29,38.55,4.72,9.73,1.22,24.77-7.8,32.57-3.57,3.09-4.65,6.3-4.62,10.77.16,22.29.1,44.57.06,66.86,0,10.34-2.5,12.78-13,12.79Q581.73,790.34,540.5,790.32Zm-.42-126.79h33.73c16,0,32.06-.13,48.09.06,5.37.07,6.23-1.55,3.65-6.07a99.16,99.16,0,0,1-6.39-12.85c-2-5.21-5.25-6.94-10.92-6.9-40.39.25-80.82,1.17-121.15-.36-17.07-.65-26.82,4.19-31.87,20.26-1.5,4.75-1.85,6,3.66,6C486,663.41,513,663.52,540.08,663.53Zm-25,39.68c11,1.31,12.34,2.87,12.34,13.57,0,16.86.19,33.73-.1,50.6-.09,5.3,1.26,7.32,6.94,7.26q39-.4,78.08,0c5.41,0,7.36-1.59,7.27-7.11-.28-16.24-.41-32.49,0-48.72.21-7.33-.28-13.18-9.08-14.5a7.93,7.93,0,0,1-3.76-2.15c-3.29-3-6-2.87-9.79-.14a26.11,26.11,0,0,1-32-.65c-3.09-2.42-4.81-2.38-7.9-.1-10.51,7.77-23,8-33,.15C520,698.13,517.79,699.05,515.07,703.21Zm-32.63,44.32c0,7.27.12,14.55,0,21.83-.09,3.71,1.31,5.29,5.09,5.2,6.45-.16,12.9-.13,19.34,0,3.46.06,4.83-1.41,4.82-4.84q-.12-22.16,0-44.3c0-3.66-1.36-5.36-5.11-5.3-6.24.1-12.48.13-18.71,0-4-.1-5.54,1.63-5.44,5.61C482.57,733,482.44,740.25,482.44,747.53Zm-14.68-41.47c-3,.61-6.6-.23-6.6,4.6q0,30,0,60c0,1.76.28,3.53,2.51,3.62,2.63.11,2.9-1.87,2.91-3.85,0-9.37-.14-18.75.08-28.11C467,730.31,465.58,718.27,467.76,706.06Zm113.59-26c-2.08,0-4.16-.08-6.23,0-1.58.08-3.64-.5-4.34,1.51-.57,1.66.52,3.21,1.44,4.59A11.18,11.18,0,0,0,589.11,688c1.82-1.73,3.78-3.85,2.8-6.45-.89-2.38-3.61-1.33-5.58-1.5C584.68,679.93,583,680,581.35,680.05Zm-122.49,0c-2.07,0-4.15-.08-6.21,0-1.57.08-3.63-.5-4.33,1.5-.58,1.66.5,3.2,1.43,4.57A11.36,11.36,0,0,0,466.66,688c1.81-1.73,3.78-3.84,2.76-6.44-.92-2.32-3.62-1.32-5.59-1.47C462.18,679.94,460.51,680,458.86,680.05Zm163.75,0c-2.06,0-4.13-.06-6.19,0-1.59.06-3.58-.44-4.44,1.37s.39,3.59,1.47,5.07a11.23,11.23,0,0,0,16,2c2.21-1.72,4.25-4,3.5-6.78s-3.88-1.37-6-1.64A34.73,34.73,0,0,0,622.61,680.05Zm-122.73,0c-2.08,0-4.17-.06-6.24,0-1.62.06-3.57-.29-4.42,1.56-.91,2,.51,3.59,1.63,5.05a10.82,10.82,0,0,0,14.53,2.53c2.43-1.61,5.27-3.65,4.54-6.85-.83-3.61-4.46-1.92-6.93-2.3A17.93,17.93,0,0,0,499.88,680.06Zm40.93,0c-1.87,0-3.75-.07-5.62,0s-4.05-.36-4.91,1.8.73,4,2.15,5.47a10.88,10.88,0,0,0,14.69,1.41c2.16-1.66,4.6-3.76,3.88-6.62-.81-3.23-4.15-1.75-6.45-2.06A25.93,25.93,0,0,0,540.81,680.06Z"/><path class="cls-2" d="M763.26,596.67c-15,0-30,.05-45,0-8.79,0-11.57-2.77-11.58-11.61q-.09-45,0-89.91c0-8.89,2.77-11.67,11.51-11.69q45.57-.06,91.16,0c8.38,0,11.29,2.73,11.32,11.28q.19,45.27,0,90.54c0,8.76-3,11.35-11.87,11.38C793.65,596.71,778.45,596.67,763.26,596.67Zm41-56.71c0-11.67-.2-23.33.09-35,.14-5.6-2.94-5.88-7.14-5.81s-8-.29-7.75,5.87c.3,7.69.1,15.41,0,23.11,0,3.9-1,7.51-4.86,9.47s-7.19.06-10.35-2.16c-11.55-8.08-11.56-8.08-23.25-.07-3.16,2.16-6.35,4.26-10.36,2.3s-5-5.83-5.06-10c0-7.5-.22-15,0-22.49.16-4.67-1.69-6.12-6.24-6.12s-6.23,1.71-6.2,6.24q.2,34.68,0,69.35c0,4.48,1.44,6.31,6.14,6.28q34.37-.26,68.73,0c5.12,0,6.4-2,6.31-6.67C804.09,562.87,804.24,551.41,804.23,540ZM772,513.58c3-13,2-14.38-10.07-14.36-2.08,0-4.16,0-6.23.07-2.25.07-3.54,1.3-3.49,3.52.06,3.45-1,7,.78,10.29a3.1,3.1,0,0,0,2.19-.47C761,507.52,766.55,509.23,772,513.58Z"/><path class="cls-2" d="M336.81,630.44q-32.76,0-65.53,0c-10,0-12.45-2.65-12-12.78,1.41-34.35,30.11-66.41,64.15-71.66,44.54-6.86,83.14,20.9,90.86,65.36a39.35,39.35,0,0,1,.52,4.33c.76,12.52-1.3,14.75-13.68,14.75Zm-.62-15.8c18.51,0,37-.14,55.54.08,5.63.07,6.73-1.83,5.42-7.11-6.71-27.12-31.17-46.4-59.82-46.81-28-.39-53.44,19.66-60.31,47-1.4,5.61.16,6.94,5.51,6.88C300.42,614.51,318.31,614.64,336.19,614.64Z"/><path class="cls-2" d="M540,440.39q-32.77,0-65.53,0c-9.27,0-11.77-2.67-11.62-12,.56-34,28.64-66.12,63.26-72.36a78.18,78.18,0,0,1,92.2,68.66c1.41,12.65-1.31,15.7-14,15.7Zm.32-15.76c18.29,0,36.59-.12,54.88.07,5.31.06,7-1.29,5.63-6.9-6.74-27.32-31.88-47.26-60.12-47.29s-53.51,20-60.19,47.2c-1.33,5.43.07,7.06,5.54,7C504.19,424.49,522.27,424.63,540.36,424.63Z"/><path class="cls-2" d="M783.36,699.47c0,11.78.09,23.57,0,35.36-.13,12.25-3.64,23.37-11.8,32.75-9.46,10.87-21.68,16.06-35.83,16.32-18.32.33-36.64.13-55,.07-6.91,0-11.28-3.37-11.18-8.23s4.25-8.12,11.34-8.16c17.48-.12,35,0,52.46-.08,21.72-.09,33.37-11.89,33.45-33.76,0-11.4,0-22.8-1.38-35l-16.49,16.43c-6.74,6.7-10.69,7.71-14.84,3.84s-3.1-8.68,3.57-15.34c9.72-9.72,19.41-19.46,29.19-29.11,6.41-6.33,10-6.36,16.37-.09,10.52,10.38,20.94,20.86,31.39,31.31,3.13,3.13,5.26,6.63,3,11.15-2.51,5.06-8.45,5.88-13.11,1.31C798,711.86,792,705,785.69,698.35Z"/><path class="cls-2" d="M386,785.29c-11.87,0-22.85,0-33.83,0-31.73,0-51.53-19.76-51.59-51.39q0-24.64,0-49.31c0-2.49-.11-5,.89-7.38,1.46-3.48,4-5.19,7.79-5,3.54.16,6,2,6.85,5.33a37.8,37.8,0,0,1,.95,8.63c.09,16.85,0,33.71.08,50.56.14,19.77,12.08,31.81,31.87,32.09,12,.18,24,0,36.9,0-1.56-3.9-4.22-5.63-6.28-7.76-4.47-4.64-9.19-9.06-13.58-13.78-3.28-3.53-3.58-7.63-.14-11.18s7.44-3.13,11.2-.14a25.33,25.33,0,0,1,2.3,2.1C389.68,748.35,400,758.6,410.28,769c6.3,6.36,6.25,10-.09,16.35Q395,800.57,379.71,815.73a27.48,27.48,0,0,1-2.73,2.56c-3.81,2.88-7.79,3.21-11.24-.33-3.28-3.36-3-7.39,0-10.7,4.44-5,9.34-9.49,14-14.29C381.68,790.91,384.16,789.24,386,785.29Z"/><path class="cls-2" d="M316.19,386.69c5.82-6.34,10.7-11.71,15.66-17a32,32,0,0,1,5.07-4.61c3.69-2.5,7.59-2.62,10.75.79s2.88,7.32-.15,10.7c-3.34,3.71-7,7.16-10.5,10.69-7.66,7.66-15.29,15.35-23,22.92-5.79,5.68-9.64,5.65-15.47-.11q-16-15.81-31.83-31.79c-4.45-4.49-5-9.16-1.71-12.63s8.08-3,12.62,1.27c6.34,6,12.58,12,18.92,18.12,2.46-2.08,1.4-4.51,1.49-6.61.54-12.88-1.07-25.82,1-38.65,3.57-21.77,21.24-37.42,43.38-38.94,19.14-1.31,38.29-.37,57.44-.61a24.27,24.27,0,0,1,5.55.72c4,.88,6.23,3.57,6.25,7.51,0,4.26-2.47,7-6.67,7.83a33.92,33.92,0,0,1-6.22.34c-17.49,0-35-.06-52.48,0-18.69.11-31.43,12.66-31.66,31.26-.15,11.66,0,23.32.06,35C314.72,383.44,315.12,384,316.19,386.69Z"/><path class="cls-2" d="M697.49,316.34c5.26,4.73,10.47,9.37,15.62,14.07,1.85,1.68,3.59,3.49,5.29,5.32,3.44,3.68,4.19,7.71.74,11.72-3.21,3.72-7.69,3.51-12.11-.49-3.23-2.94-6.24-6.13-9.33-9.22-7.82-7.8-15.68-15.55-23.43-23.41-5.51-5.58-5.6-9.56-.22-15q16-16.23,32.27-32.24c4.44-4.4,9.27-5,12.64-1.77,3.54,3.35,3,8.41-1.66,13.08-6.27,6.29-12.67,12.44-19,18.64l.68,1.48c12.6,0,25.21-.11,37.82,0,14.53.17,26.71,5.72,36.26,16.74,8,9.25,11.29,20.31,11.42,32.29.19,17.29.07,34.58,0,51.87a26.73,26.73,0,0,1-.57,5.57c-.89,4.2-3.56,6.58-7.89,6.56s-6.8-2.84-7.66-6.88a30.69,30.69,0,0,1-.36-6.22c0-16.87,0-33.75,0-50.62-.07-19.07-9.86-30.94-28.68-32.88-12-1.24-24.13-.52-36.2-.62C701.72,314.35,700.19,313.86,697.49,316.34Z"/><path class="cls-2" d="M577.27,302.67c.09,15-3.81,28.17-17.23,36.65-22.57,14.25-51.19.94-54.77-25.68-1.93-14.35-2.53-28.88,7.72-41,9.79-11.56,22.47-15.66,37-11.76,14.85,4,23.6,14.14,26.11,29.38C576.79,294.36,576.9,298.54,577.27,302.67Zm-16.58,0h-.32c0-3.12.2-6.25,0-9.35a19.35,19.35,0,0,0-19.67-17.83c-10.42,0-18.92,7.67-19.55,17.94-.34,5.59-.27,11.22-.07,16.82.35,9.92,7.4,17.48,16.91,18.43,10.76,1.08,19.57-4.44,21.88-14.24C560.72,310.62,560.44,306.57,560.69,302.64Z"/><path class="cls-2" d="M373.31,492.1c.54,13.29-2.16,25-12.25,33.78-11,9.6-23.63,12.19-37.16,6.71-13.15-5.32-20.8-15.38-22.38-29.75a84,84,0,0,1-.21-19.28c2.47-20.85,17.59-34.54,37.54-33.84,18.87.67,33.28,15.7,34.45,36C373.43,488,373.31,490.31,373.31,492.1Zm-16.56.27c0-2.71.13-5.42,0-8.11a19.7,19.7,0,0,0-39.37.46c-.19,5.19-.2,10.4,0,15.59.42,10.77,9.51,19.4,20,19.18a19.76,19.76,0,0,0,19.42-19C356.87,497.78,356.76,495.07,356.75,492.37Z"/><path class="cls-2" d="M572,708.47c8.95,0,17.9-.1,26.85,0,7.1.1,9.76,2.8,9.81,9.92q.15,20.3,0,40.59c0,7-2.77,9.89-9.87,10-18.52.15-37,.07-55.57,0-6,0-9.63-3.28-9.75-9.11q-.43-21.23,0-42.45c.13-5.85,3.69-9,9.79-9C552.81,708.51,562.39,708.47,572,708.47Zm-1.2,44.1c5.61,0,11.22-.06,16.83,0,3.59,0,5.38-1.37,5.3-5.16-.13-6-.14-12.06,0-18.08.1-3.71-1.35-5.22-5.13-5.17-11,.14-22,.11-33,0-3.33,0-5.07,1.11-5,4.65q.13,9.36,0,18.71c-.06,3.85,2,5.08,5.46,5C560.36,752.52,565.56,752.57,570.76,752.57Z"/></svg>