<svg id="Layer_1" data-name="Layer 1" xmlns="http://www.w3.org/2000/svg" viewBox="0 0 1080 1080"><defs><style>.cls-1{fill:none;stroke-width:25px;}.cls-1,.cls-2{stroke:#ea461f;stroke-miterlimit:10;}.cls-2{fill:#ea461f;stroke-width:7px;}</style></defs><path class="cls-1" d="M808.47,852.28H271.53a59.18,59.18,0,0,1-56.6-41.9L129.88,304.19c-9.93-38,14.4-76.47,48.41-76.47H901.71c34,0,58.34,38.44,48.41,76.47l-85,506.19A59.18,59.18,0,0,1,808.47,852.28Z"/><path class="cls-2" d="M566.63,499.76a66.86,66.86,0,0,1-6.68,2.79c-1,.36-1.92.72-2.89,1.11l-2.28.91-2.27-.94c-1-.43-2-.82-3-1.21-2.17-.86-4.4-1.75-6.58-2.84-41.72-20.81-79-39.46-114-57-.33-.16-.9-.37-1.45-.58-2.48-.93-8.29-3.1-8.51-9.42-.26-7.22,6-9.59,8.71-10.6a15.9,15.9,0,0,0,1.52-.62c77-41,158.84-84.56,265.35-141.16q24.74-13.15,49.49-26.27l38.08-20.2H728.22L673.09,263l-64.4,34.2c-69.34,36.81-141,74.87-211.37,112.62-6.26,3.36-11.76,4.92-17.29,4.92-5.33,0-10.75-1.51-16.57-4.63-15.88-8.51-32.35-16.65-48.27-24.53-8.36-4.13-17-8.41-25.47-12.69-.3-.15-.92-.37-1.46-.57-2.41-.85-9.73-3.45-8.58-11.31.68-4.7,5.08-6.94,8.62-8.73l1.17-.6c80.29-42.78,152.87-81.4,221.72-118H457.26L305.67,314.18c-17.29,9.18-35.16,18.67-52.59,28.24A25.56,25.56,0,0,1,240.64,346a23.08,23.08,0,0,1-10.57-2.7c-23.22-11.75-46.88-23.58-69.77-35q-13.05-6.52-26.08-13a62.49,62.49,0,0,0,1.47,7.45l.06.26,4,23.53c23.42,11.75,49.7,24.92,75.59,37.57,9.68,4.73,13.78,11.36,13.71,22.17-.3,43.83-.25,88.4-.2,131.5l0,30.77c0,15.79,2.63,18.38,18.77,18.44h1.2c.84,0,1.69,0,2.54,0,4.84,0,10-.42,15-.84,5.21-.42,10.6-.87,15.87-.87,9.26,0,16.49,1.4,22.75,4.41,11.93,5.72,21.15,16.09,30.07,26.11,3.59,4,7.29,8.2,11,11.87,7.11,7,15.51,15.28,24,24,3.37,3.45,6.69,5.13,10.18,5.13a13.7,13.7,0,0,0,5-1.06c3.72-1.5,7.53-4.29,7.51-13.68-.11-42.26-.08-85.23,0-126.78V476a53.48,53.48,0,0,1,.5-9.68c1.37-6.88,6.65-7.41,8.23-7.41,3.06,0,6,1.42,11.48,4.13q17.6,8.78,35.14,17.6c26.45,13.27,53.79,27,80.83,40.15,9.83,4.78,14,11.7,14,23.11-.24,53.67-.21,108.25-.19,161q0,24.6,0,49.19v92.14h24.42c0-107,0-204-.21-302.59,0-11.23,4.08-17.86,14.16-22.88C695,464.08,810.67,406.22,922.56,350.25l15-7.5,5.21-31C816.94,374.67,690.45,437.9,566.63,499.76ZM368.28,547.28v33.19L358.49,586l-3.22-3.32q-4.75-4.92-9.54-9.81c-7.56-7.77-15.37-15.8-22.94-23.85-4.29-4.57-8.88-6.61-14.86-6.61h-.84c-3.86.12-8,.17-13.1.17h0l-9.27,0c-3.07,0-6.14,0-9.21,0-2.56,0-5.11,0-7.66,0h-.43c-4.62,0-8.06-1.2-10.53-3.68s-3.68-6-3.67-10.6c.13-45.29.13-86.59,0-126.23,0-3,.3-7.21,3.15-10.06a8.67,8.67,0,0,1,6.29-2.54c2.24,0,4.66.72,7.86,2.32,29.7,15,59.64,29.92,87.56,43.83,4.44,2.21,10.33,6.2,10.31,15.27C368.26,483,368.27,515.68,368.28,547.28Z"/></svg>