<svg id="Layer_1" data-name="Layer 1" xmlns="http://www.w3.org/2000/svg" viewBox="0 0 1080 1080"><defs><style>.cls-1{fill:none;stroke:#ea461f;stroke-miterlimit:10;stroke-width:25px;}.cls-2{fill:#ea461f;}</style></defs><path class="cls-1" d="M808.47,852.28H271.53a59.18,59.18,0,0,1-56.6-41.9L129.88,304.19c-9.93-38,14.4-76.47,48.41-76.47H901.71c34,0,58.34,38.44,48.41,76.47l-85,506.19A59.18,59.18,0,0,1,808.47,852.28Z"/><path class="cls-2" d="M391.19,253.88c22.37,20.64,48.92,26.14,77.67,16.06,16.63-5.82,33.42-8.66,50.77-7.1,56.68,5.08,102.92,30.24,139.26,73.93,12.76,15.33,22.75,32.44,32.32,49.89,10.88,19.84,26.62,33.81,49.85,37.35,16.17,2.46,30.68-2.6,44.37-10.54,16.12-9.36,29.16-22.33,41.16-36.41,4-4.71,8.51-8.5,14.71-10,8.38-2,16.87,1.89,21.55,10.49,5.25,9.65,8.61,20.05,11.57,30.61,7.68,27.45,25.67,42.35,51,42.94l5.32-31.67c-1.3.15-2.6.27-3.91.33-9.66.39-17.58-5.72-20.82-16.17-4.18-13.46-8.11-27-14.61-39.6-16.92-32.79-58.38-39-84.15-12.43-5.61,5.77-10.75,12-16.49,17.64a136.38,136.38,0,0,1-15.67,13.46c-24,17.2-43.59,12.73-57.48-13.25-10.08-18.84-21.26-36.88-35-53.29-38.88-46.52-87.93-75-148.12-83.46-8.23-1.16-16.59-1.37-22.82-1.85-19.39.48-36.18,3.23-52.66,9.12-17.62,6.3-34.15,3.26-47.7-10.36-.62-.62-1.2-1.25-1.77-1.88H372.14A77.55,77.55,0,0,0,391.19,253.88Z"/><path class="cls-2" d="M203.48,239.12c4.4-6.34,11.7.79,18.25,4.44,11,6.15,22.56,11.38,33.77,17.19,21.34,11.08,29.19,29.76,29.12,52.73-.07,21.55-10.82,36.31-29.52,45.84q-12.66,6.46-25.4,12.75a82,82,0,0,0-31.8,27.08c-11,15.89-25.77,24.12-45.19,23.66h-2.9l5.33,31.71a77,77,0,0,0,14.41-1.26c20.93-4.13,38.21-14.31,50.7-31.61a73,73,0,0,1,30.27-24.77c7.08-3.14,14-6.75,20.8-10.45,28-15.19,44.08-38.58,44.87-70.66.86-34.61-11.71-63.1-42.78-81.09-4.19-2.44-8.47-4.75-12.79-7H181.21"/><path class="cls-2" d="M311.72,847.52c2.72-22.26,3-22.93,5.88-45.18,1.62-12.79,7.3-24,14-35,15-24.45,21.41-51.13,15.66-79.4-6.93-34.11-28-56.15-61.7-65-13.27-3.51-24.45-9.43-33.8-19.41-7.47-8-15.24-15.68-23.17-23.19-16.4-15.54-35.1-23.6-56.16-23.74l5.43,32.28c11.71,1.48,22.07,6.69,31,16.1,5.74,6,12,11.6,17.6,17.76a101.82,101.82,0,0,0,52.42,31.19c25.15,6.23,38.54,25.92,38.38,53.4.34,14.48-2.69,28.47-10.73,40.28-16.19,23.77-21.47,50.45-23.72,78.26-.46,5.73-1.16,11.44-1.82,17.15"/><path class="cls-2" d="M462.05,334.39c17.27-2.13,34.73,3.83,51.13,14.73,12.19,8.12,25.09,15.16,37.6,22.8,6.63,4.06,13.3,6,21.26,3.95,9.72-2.48,19.66-4.17,29.58-5.72,24.42-3.83,45.83,7.73,56,30.54,9,20.23,17.64,40.64,26.15,61.1a32,32,0,0,0,14.41,16.46q12.78,7.15,25.08,15.18c26.1,17,32.09,49.28,13.67,74.54-7.46,10.22-15.51,20-23.55,29.78a30.14,30.14,0,0,0-7.26,20.61c.27,14.1.08,28.21,0,42.31,0,11.66-2.81,23.21-11.18,30.94-24.88,23-38.92,53.17-56.37,81.12-6.26,10-14.11,18.12-25.1,22.81-26.82,11.45-55.35-.79-67.79-28.25-14.94-33-23.47-67.83-32.17-102.73-7.22-28.93-12.11-58.6-27.61-85-8.25-14-14.71-18.56-30-13.81C432.1,573.14,412,568,393.74,551.66c-11.12-10-23.27-18.77-34.89-28.17-24.74-20-31.61-60.24-13.72-86.62,18.73-27.6,38.44-54.55,58-81.56,10.38-14.33,25.32-20.2,42.55-20.89C450.3,334.24,454.9,334.39,462.05,334.39Zm.14,31.89c-7.39,0-12.28,0-17.16,0-7,.08-13,2.71-17.1,8.48-18.77,26.18-37.73,52.24-56,78.78-9.14,13.27-4.88,36.07,7.46,46s25,19.4,36.94,29.77c8.9,7.73,18.18,10.43,29.37,6.48a53.6,53.6,0,0,1,9.18-2.29c21-3.46,39.4,1.79,51.57,19.83,11.07,16.42,20.29,34.14,25.25,53.62,6,23.69,12.19,47.36,17.58,71.19a425.57,425.57,0,0,0,25.2,76c3.2,7.38,8.1,12.48,16.42,13.48,9.06,1.09,15.53-2.95,20.17-10.4,3.35-5.38,6.52-10.86,9.83-16.25,14.39-23.48,26.42-48.64,48-67,4.71-4,5.59-9.84,5.59-15.78,0-13,.12-25.91.06-38.86-.08-15.86,4.4-29.94,14.9-42.12,7.51-8.71,14.63-17.78,21.48-27,8.29-11.18,6.25-22.91-5.23-30.6-7.4-4.95-15-9.61-22.85-13.86-13.49-7.34-22.54-18.17-28.31-32.39-7.89-19.45-16.34-38.69-24.76-57.93-5.4-12.34-13.16-16.25-26.17-13.69-8.73,1.71-17.44,3.53-26.18,5.21-14.68,2.83-28.47,1-41.37-7.15-12.65-8-25.85-15-38.33-23.26C486,368.89,474,363.64,462.19,366.28Z"/><path class="cls-2" d="M823.68,689c.31,4.58-1.65,8.4-3.89,12.14-13.3,22.19-26.48,44.46-39.91,66.57-8.51,14-18.24,15-30,3.48-8.18-8.07-16.23-16.28-24.37-24.39-5.28-5.25-7.27-11.17-5.66-18.78,4.61-21.92,8.8-43.94,13.08-65.94a29.94,29.94,0,0,1,8.66-16.42c13-12.63,25.66-25.54,38.43-38.38,4.89-4.92,10.27-8.54,17.59-6.35,7.5,2.25,10.67,8,12.1,15.3,4.31,22,8.84,43.94,13.23,65.92C823.41,684.37,823.45,686.7,823.68,689ZM784,648.26c-10.58,10.61-21.81,17.8-22.83,32.92-.52,7.68-2.92,15.23-4.42,22.84-1.33,6.77-2.74,13.52-3.86,20.32-.82,5,2,8.6,6,10.51,4.74,2.28,5.58-2.81,7.17-5.39,7.41-12,14.57-24.12,21.78-36.22,1.62-2.71,3.79-5.44,3.19-8.74C788.93,673,786.58,661.58,784,648.26Z"/></svg>