<svg id="Layer_1" data-name="Layer 1" xmlns="http://www.w3.org/2000/svg" viewBox="0 0 1080 1080"><defs><style>.cls-1{fill:none;stroke:#ea461f;stroke-miterlimit:10;stroke-width:25px;}.cls-2{fill:#ea461f;}</style></defs><path class="cls-1" d="M808.47,852.28H271.53a59.18,59.18,0,0,1-56.6-41.9L129.88,304.19c-9.93-38,14.4-76.47,48.41-76.47H901.71c34,0,58.34,38.44,48.41,76.47l-85,506.19A59.18,59.18,0,0,1,808.47,852.28Z"/><path class="cls-2" d="M234,501.69c18.19-21.11,36.44-42.16,54.51-63.37a36,36,0,0,1,14-10.64c13.43-5.51,26.58-11.73,40-17.39,4.24-1.79,6-4.2,5.9-9-.28-17.32-.12-34.64-.12-52,0-11.87.2-12.3,11.09-16.8q77-31.76,154-63.48a19,19,0,0,1,14.43-.39q92.92,32.64,185.89,65.12c5.64,2,8.24,5.54,8.18,11.6-.16,17.32.1,34.64-.15,51.95-.06,4.51,1.57,6.8,5.59,8.52,17.38,7.44,34.63,15.18,52,22.67a23.87,23.87,0,0,1,9.09,6.5c17.57,20.6,35.25,41.09,52.8,61.71,7.94,9.34,6.34,15.78-4.75,20.81C822.21,524,808.19,530.66,794,536.9c-4.1,1.79-5.47,4.14-5.46,8.56.15,46-.07,92,.25,138,.05,8.17-2.93,12.7-10.16,16.16Q662.5,755,546.6,810.84a14.68,14.68,0,0,1-13.68,0q-116.76-56.15-233.6-112.12c-5.88-2.81-8.58-6.76-8.55-13.49.19-46.39,0-92.77.21-139.15,0-5.19-1.68-7.81-6.38-9.84-13.87-6-27.51-12.58-41.3-18.77a30.94,30.94,0,0,1-9.35-6.24Zm316.41,61.1a11.57,11.57,0,0,0-.6,2.06q0,108.33-.11,216.68c0,5.5,2.25,4.09,5.32,2.62q103.8-49.89,207.69-99.62c4.73-2.25,6.13-5,6.1-10.06-.18-39.59-.1-79.19-.1-118.79,0-7-.06-7.07-6.35-4.19q-38.79,17.75-77.56,35.58Q649,603.48,613.14,619.85c-6.8,3.1-10.34,2.31-15.44-3.11-1.91-2-3.7-4.17-5.53-6.26Zm-20.6-.56c-3.54,4-6.16,6.85-8.73,9.78-12.85,14.67-25.63,29.41-38.55,44-5.71,6.44-9.12,7-16.85,3.48Q391.32,585.39,317,551.25c-6.11-2.8-6.19-2.79-6.19,3.79,0,39.61.12,79.21-.15,118.82,0,5.9,2,8.71,7.22,11.18Q421.07,734.26,524,783.93c4.86,2.35,5.85,1.62,5.84-3.68q-.2-106.29-.09-212.56Zm80.67,36.22c1-.39,2.25-.87,3.51-1.44q9-4.08,17.92-8.19,90.6-41.52,181.25-83c5-2.26,5.81-4,2-8.31-12.25-13.87-24.24-28-36.14-42.14-2.56-3-4.78-3.07-8.21-1.69q-104.37,41.91-208.87,83.54c-3.87,1.55-4.56,2.54-1.54,5.94,15.6,17.54,31,35.29,46.42,53C607.64,597.19,608.43,598.42,610.43,598.45Zm-88.9-58.26c-.56-2.48-2.73-2.39-4.24-3q-28.21-11.41-56.49-22.67L309.54,454c-3-1.19-5.44-2.63-8.36.84q-18.21,21.74-37,43c-3.77,4.26-2.51,5.78,2.06,7.84,27.74,12.52,55.37,25.27,83,38q58.31,26.75,116.59,53.55c2.95,1.36,4.93,1.49,7.23-1.18,15.34-17.78,30.82-35.43,46.25-53.13C520.12,542,520.84,541,521.53,540.19ZM501.1,462.68c0-12.54-.35-25.09.15-37.6.23-5.83-2-8.39-7.08-10.54-23.05-9.83-45.95-20-68.91-30.07-17.31-7.58-34.66-15.06-51.93-22.74-3.85-1.71-5.39-1.23-5.22,3.32.24,6.56,0,13.13.09,19.69.27,21.89-.49,43.77.44,65.65.17,3.94,1.77,6.07,5.4,7.51Q434.76,482,495.37,506.43c4.42,1.78,5.92,1.43,5.81-3.76C500.92,489.35,501.09,476,501.1,462.68Zm105.95-19.74c0,15.92.14,31.84-.08,47.76-.07,5.18,1.22,6.2,6.15,4.19q41.46-16.87,83.12-33.23c4.18-1.64,5.65-3.88,5.62-8.36q-.27-44.18,0-88.35c0-5.23-1.12-6.64-6.42-4.83q-41.22,14.06-82.63,27.56c-4.29,1.4-5.92,3.51-5.85,8.1C607.21,411.5,607.05,427.22,607.05,442.94ZM462.71,312c3.22,1.51,5,2.39,6.8,3.18q61.49,26.93,123,53.91a13.74,13.74,0,0,0,10.81.4c23.16-7.87,46.39-15.54,69.58-23.33,1.74-.58,3.92-.52,5.1-2.81-1-.47-1.88-1-2.79-1.28L524.84,289.38c-1.88-.66-3.69-1.33-5.76-.47C500.73,296.47,482.36,304,462.71,312ZM587.1,451.25c0-16.32-.09-32.65,0-49,0-4.31-1-5.74-5.53-4.18q-27.95,9.6-56,18.72c-3.46,1.13-4.59,3-4.58,6.53.09,29.46,0,58.92.06,88.38,0,1.56-.25,3.21.8,4.61,2.28,3,18.44,7.59,22.11,6.13,12.57-5,25.06-10.23,37.72-15,4.3-1.63,5.56-4.07,5.49-8.46C587,483.1,587.1,467.17,587.1,451.25Zm-20-69.8c-1.66-2.55-4-2.88-5.86-3.72C524.42,361.57,487.42,345.91,451,329.1c-10.53-4.85-19.28-5.5-29.61-.3-11.43,5.76-23.61,10-36.62,15.43,3,1.39,4.7,2.24,6.47,3,32.42,14.2,65.26,27.53,97.09,42.95,16.2,7.84,30.71,10,47.19,2.1C545.37,387.56,556.33,385,567.06,381.45Zm185.13,57.72c-10.09-4.46-18.73-8.29-27.4-12.08-1.92-.84-3-.29-3,2,0,6.35,0,12.71,0,19.06,0,2.35,1.41,2.58,3.22,1.86C733.6,446.59,742.19,443.15,752.19,439.17Zm-424.63-.1c6.67,2.72,12.1,5,17.56,7.15.88.35,2.37.73,2.61-.39,1-4.48.58-9.05.22-13.58-.09-1.11-1.27-1.35-2.36-1-.38.13-.77.22-1.13.38C339.24,433.93,334,436.23,327.56,439.07Z"/><path class="cls-2" d="M569.21,717.07c-5.21.09-8.61-2.12-10.15-6.47s-.6-8.31,3.11-11.25a20.33,20.33,0,0,1,4.67-2.56q30.9-13.32,61.83-26.57a27.44,27.44,0,0,1,2.77-1.09c5.69-1.7,10.88.44,13,5.34s.4,10.35-4.91,13.12c-4.91,2.57-10.13,4.56-15.23,6.75L575,715.41C573,716.27,571,717.14,569.21,717.07Z"/><path class="cls-2" d="M645.21,716.92c-.06,4.78-2.78,7.82-6.85,9.58q-32.54,14-65.18,27.81c-6.14,2.57-11.83.24-14-5.07s.05-10.91,6.2-13.58q32.22-14,64.59-27.69C638.1,704.54,645.35,709,645.21,716.92Z"/><path class="cls-2" d="M511.47,702.4c0,7.76.15,15.52,0,23.27-.19,8-6.3,12.64-13.82,9.82-16-6-31.84-12.52-47.66-19-4.24-1.73-6.22-5.27-6.2-10,.07-15.52-.09-31,.08-46.56.09-8,6.29-12.63,13.82-9.81,16,6,31.83,12.51,47.66,19,4.23,1.74,6.24,5.28,6.19,10C511.41,686.88,511.47,694.64,511.47,702.4Zm-19.93-3.8c-.33-15.74,2.41-11.86-12.23-18-2.38-1-4.78-1.93-7.17-2.87-9.42-3.72-8.41-4.07-8.42,5.43,0,17,0,17,15.81,23.33C491.54,711.27,491.54,711.27,491.54,698.6Z"/></svg>